<?xml version="1.0" encoding="UTF-8" standalone="no"?>
<!-- Created with Inkscape (http://www.inkscape.org/) -->

<svg
   width="500"
   height="500"
   viewBox="0 0 132.29167 132.29167"
   version="1.1"
   id="svg5"
   inkscape:version="1.1.2 (0a00cf5339, 2022-02-04)"
   sodipodi:docname="9.svg"
   xmlns:inkscape="http://www.inkscape.org/namespaces/inkscape"
   xmlns:sodipodi="http://sodipodi.sourceforge.net/DTD/sodipodi-0.dtd"
   xmlns="http://www.w3.org/2000/svg"
   xmlns:svg="http://www.w3.org/2000/svg">
  <sodipodi:namedview
     id="namedview7"
     pagecolor="#ffffff"
     bordercolor="#666666"
     borderopacity="1.0"
     inkscape:pageshadow="2"
     inkscape:pageopacity="0.0"
     inkscape:pagecheckerboard="0"
     inkscape:document-units="px"
     showgrid="true"
     width="500px"
     units="px"
     inkscape:zoom="2"
     inkscape:cx="197.75"
     inkscape:cy="266"
     inkscape:window-width="1276"
     inkscape:window-height="1396"
     inkscape:window-x="0"
     inkscape:window-y="0"
     inkscape:window-maximized="1"
     inkscape:current-layer="layer1">
    <inkscape:grid
       type="xygrid"
       id="grid9"
       spacingx="1.3229167"
       spacingy="1.3229167" />
  </sodipodi:namedview>
  <defs
     id="defs2" />
  <g
     inkscape:label="Layer 1"
     inkscape:groupmode="layer"
     id="layer1">
    <path
       id="path1010"
       style="fill:#000000;fill-opacity:1;stroke:none;stroke-width:0.264583px;stroke-linecap:butt;stroke-linejoin:miter;stroke-opacity:1"
       d="m 44.979107,92.604169 c 5.045169,-5.045168 25.723094,-22.116095 27.638625,-48.918978 0.116327,-1.094068 0.161446,-2.197526 0.134358,-3.299026 0.0029,-0.232844 0.0083,-0.464447 0.0083,-0.698664 h -0.03566 c -0.528579,-10.12444 -7.130502,-19.84375 -19.808093,-19.84375 -26.458334,0 -26.458334,42.333334 0,42.333334 1.103302,0 2.159579,-0.07493 3.170867,-0.216009 -6.345833,12.290037 -16.28452,23.071731 -23.014617,30.643093 z m 7.9375,-41.010418 c -11.90625,0 -11.90625,-21.166667 0,-21.166667 11.90625,0 11.90625,21.166667 0,21.166667 z" />
  </g>
</svg>
