<?xml version="1.0" encoding="UTF-8" standalone="no"?>
<!-- Created with Inkscape (http://www.inkscape.org/) -->

<svg
   width="500"
   height="500"
   viewBox="0 0 132.29167 132.29167"
   version="1.1"
   id="svg5"
   inkscape:version="1.1.2 (0a00cf5339, 2022-02-04)"
   sodipodi:docname="hash.svg"
   xmlns:inkscape="http://www.inkscape.org/namespaces/inkscape"
   xmlns:sodipodi="http://sodipodi.sourceforge.net/DTD/sodipodi-0.dtd"
   xmlns="http://www.w3.org/2000/svg"
   xmlns:svg="http://www.w3.org/2000/svg">
  <sodipodi:namedview
     id="namedview7"
     pagecolor="#ffffff"
     bordercolor="#666666"
     borderopacity="1.0"
     inkscape:pageshadow="2"
     inkscape:pageopacity="0.0"
     inkscape:pagecheckerboard="0"
     inkscape:document-units="px"
     showgrid="true"
     width="500px"
     units="px"
     inkscape:zoom="2"
     inkscape:cx="227.25"
     inkscape:cy="266"
     inkscape:window-width="1276"
     inkscape:window-height="1396"
     inkscape:window-x="0"
     inkscape:window-y="0"
     inkscape:window-maximized="1"
     inkscape:current-layer="layer1">
    <inkscape:grid
       type="xygrid"
       id="grid9"
       spacingx="1.3229167"
       spacingy="1.3229167" />
  </sodipodi:namedview>
  <defs
     id="defs2" />
  <g
     inkscape:label="Layer 1"
     inkscape:groupmode="layer"
     id="layer1">
    <path
       id="path4691"
       style="fill:#000000;stroke:none;stroke-width:0.999999px;stroke-linecap:butt;stroke-linejoin:miter;stroke-opacity:1;fill-opacity:1"
       d="M 170 0 L 155.85742 110 L 125 110 L 125 150 L 150.71484 150 L 144.28516 200 L 125 200 L 125 240 L 139.14258 240 L 125 350 L 165 350 L 179.14258 240 L 204.14258 240 L 190 350 L 230 350 L 244.14258 240 L 275 240 L 275 200 L 249.28516 200 L 255.71484 150 L 275 150 L 275 110 L 260.85742 110 L 275 0 L 235 0 L 220.85742 110 L 195.85742 110 L 210 0 L 170 0 z M 190.71484 150 L 215.71484 150 L 209.28516 200 L 184.28516 200 L 190.71484 150 z "
       transform="scale(0.26458334)" />
  </g>
</svg>
