<?xml version="1.0" encoding="UTF-8" standalone="no"?>
<!-- Created with Inkscape (http://www.inkscape.org/) -->

<svg
   width="500"
   height="500"
   viewBox="0 0 132.29167 132.29167"
   version="1.1"
   id="svg5"
   inkscape:version="1.1.2 (0a00cf5339, 2022-02-04)"
   sodipodi:docname="Q.svg"
   xmlns:inkscape="http://www.inkscape.org/namespaces/inkscape"
   xmlns:sodipodi="http://sodipodi.sourceforge.net/DTD/sodipodi-0.dtd"
   xmlns="http://www.w3.org/2000/svg"
   xmlns:svg="http://www.w3.org/2000/svg">
  <sodipodi:namedview
     id="namedview7"
     pagecolor="#ffffff"
     bordercolor="#666666"
     borderopacity="1.0"
     inkscape:pageshadow="2"
     inkscape:pageopacity="0.0"
     inkscape:pagecheckerboard="0"
     inkscape:document-units="px"
     showgrid="true"
     width="500px"
     units="px"
     inkscape:zoom="2"
     inkscape:cx="227.25"
     inkscape:cy="266"
     inkscape:window-width="1276"
     inkscape:window-height="1396"
     inkscape:window-x="0"
     inkscape:window-y="0"
     inkscape:window-maximized="1"
     inkscape:current-layer="layer1">
    <inkscape:grid
       type="xygrid"
       id="grid9"
       spacingx="1.3229167"
       spacingy="1.3229167" />
  </sodipodi:namedview>
  <defs
     id="defs2" />
  <g
     inkscape:label="Layer 1"
     inkscape:groupmode="layer"
     id="layer1">
    <path
       id="path3212-0"
       style="fill:#000000;fill-opacity:1;stroke:none;stroke-width:1;stroke-linecap:butt;stroke-linejoin:miter;stroke-opacity:1;stroke-miterlimit:4;stroke-dasharray:none"
       d="M 200 0 C 162.5 1.8897637e-07 125 29.999999 125 90 L 125 260 C 125 336.55811 186.0238 364.18817 230.22852 343.06055 L 235 350 L 275 350 L 255.96875 322.32031 C 267.5426 307.4979 275 286.73576 275 260 L 275 90 C 275 29.999998 237.5 -1.889764e-07 200 0 z M 200 37.5 C 217.5 37.5 235 54.999998 235 90 L 235 260 C 235 270.14308 233.49598 278.76906 230.98242 285.97266 L 220 270 L 180 270 L 208.27148 311.12109 C 188.50119 317.57334 165 300.56683 165 260 L 165 90 C 165 54.999999 182.5 37.5 200 37.5 z "
       transform="scale(0.26458334)" />
  </g>
</svg>
